<?xml version="1.0" encoding="utf-8"?>
<!-- Generator: Adobe Illustrator 23.0.1, SVG Export Plug-In . SVG Version: 6.00 Build 0)  -->
<svg version="1.1" id="Layer_1" xmlns="http://www.w3.org/2000/svg" xmlns:xlink="http://www.w3.org/1999/xlink" x="0px" y="0px"
	 viewBox="0 0 100 100" fill="#fff" style="enable-background:new 0 0 100 100;" xml:space="preserve">
<path d="M38.1,58.5L12.2,36.1C12.4,36,12.7,36,13,36h38.1c0.6,6.9,4.4,12.8,9.9,16.4l-7,6.1L52.2,60l-4.9,4.2
	c-0.8,0.7-1.9,0.7-2.6,0L39.8,60L38.1,58.5z M64.8,54.4L58.3,60l24.5,21.2c0.1-0.4,0.2-0.8,0.2-1.2V53.6c-3,1.5-6.4,2.4-10,2.4
	C70.1,56,67.3,55.4,64.8,54.4z M49.9,67.2c-1.1,1-2.5,1.5-3.9,1.5s-2.8-0.5-3.9-1.5l-5.3-4.6L12.2,83.9C12.4,84,12.7,84,13,84h66
	c0.3,0,0.6,0,0.8-0.1L55.2,62.6L49.9,67.2z M9.2,38.8C9.1,39.2,9,39.6,9,40v40c0,0.4,0.1,0.8,0.2,1.2L33.7,60L9.2,38.8z M91,34
	c0,9.9-8.1,18-18,18s-18-8.1-18-18s8.1-18,18-18S91,24.1,91,34z M82.9,26.2c-0.8-0.8-2.1-0.8-2.8,0l-4.2,4.2l-7.1,7.1l-2.8-2.8
	c-0.8-0.8-2-0.8-2.8,0c-0.8,0.8-0.8,2,0,2.8l4.2,4.2c0.4,0.4,0.9,0.6,1.4,0.6s1-0.2,1.4-0.6L82.9,29C83.7,28.3,83.7,27,82.9,26.2z"
	/>
</svg>
