<?xml version="1.0" encoding="utf-8"?>
<!-- Generator: Adobe Illustrator 21.0.2, SVG Export Plug-In . SVG Version: 6.00 Build 0)  -->
<svg version="1.1" fill="#fff" id="Layer_1" xmlns="http://www.w3.org/2000/svg" xmlns:xlink="http://www.w3.org/1999/xlink" x="0px" y="0px"
	 viewBox="0 0 100 100" style="enable-background:new 0 0 100 100;" xml:space="preserve">
<g>
	<path d="M72.6,67.2c-2.9-2.9-7.5-3.4-10.9-1.2l14.6,14.6c2.2-3.4,1.8-8-1.2-10.9L72.6,67.2z"/>
	<path d="M55.1,70.5c-2.2,1.5-5.2,1.2-7.1-0.6L29.4,51.2c-1.9-1.9-2.2-4.9-0.7-7.1l2.2-3.2L15.6,25.7l-2.3,2.3
		c-3.1,3.1-3.3,9.2-0.5,16.7c3,8.1,9,16.9,17,24.9C47.2,86.8,65.3,92,71.3,85.9l2.3-2.3L58.3,68.3L55.1,70.5z"/>
	<path d="M32.1,26.7l-2.5-2.5c-1.7-1.7-4-2.6-6.2-2.6c-1.7,0-3.3,0.5-4.8,1.4l14.6,14.7C35.5,34.2,35,29.6,32.1,26.7z"/>
	<path d="M73.1,49.7c0,1.1,0.9,2,2,2s2-0.9,2-2c0-14.3-11.7-26-26-26c-1.1,0-2,0.9-2,2s0.9,2,2,2C63.2,27.7,73.1,37.5,73.1,49.7z"/>
	<path d="M51.1,11.7c-1.1,0-2,0.9-2,2s0.9,2,2,2c18.7,0,34,15.3,34,34c0,1.1,0.9,2,2,2s2-0.9,2-2C89.1,28.7,72.1,11.7,51.1,11.7z"/>
</g>
</svg>
