<svg width="518" height="404" viewBox="0 0 518 404" fill="none" xmlns="http://www.w3.org/2000/svg">
<g id="svg-astronaut" clip-path="url(#clip0)">
<g id="moon">
<path id="Vector" d="M242.5 311C74.1274 311 -62.4275 353.95 -63 407H548C547.427 353.95 410.873 311 242.5 311Z" fill="#F2F2F2"/>
<g id="moon_2">
<g id="Ellipse 3" filter="url(#filter0_d)">
<ellipse cx="157.102" cy="370.979" rx="51.1019" ry="20.2428" fill="#C4C4C4"/>
</g>
<g id="Ellipse 4" filter="url(#filter1_d)">
<ellipse cx="324.562" cy="355.243" rx="51.5623" ry="20.2428" fill="#C4C4C4"/>
</g>
</g>
</g>
<g id="astronaut">
<path id="Vector_2" d="M357.164 137.082H355.705V166.534H357.164V137.082Z" fill="#E6E6E6"/>
<path id="Vector_3" d="M322.587 215.376L309.165 246.286L311.791 250.66L310.916 252.117L317.043 255.325V253.576L319.378 252.992L329.298 234.913L322.587 215.376Z" fill="#E6E6E6"/>
<path id="Vector_4" d="M312.083 251.826C312.083 251.826 302.162 267.281 313.25 269.613C324.338 271.946 315.292 253.284 315.292 253.284L312.083 251.826Z" fill="#E6E6E6"/>
<path id="Vector_5" d="M326.38 244.828L322.879 256.2L321.42 270.78L318.794 276.029L321.712 299.648L326.38 304.313L328.423 327.641V338.139L333.967 347.762L326.828 357.888C326.491 358.364 326.289 358.922 326.245 359.503C326.2 360.084 326.313 360.666 326.573 361.188C326.833 361.71 327.229 362.152 327.72 362.467C328.211 362.781 328.778 362.957 329.361 362.976C330.937 363.017 333.015 362.572 335.718 361.175C344.179 356.801 343.888 352.719 343.888 352.719C343.888 352.719 349.14 352.719 349.432 348.636C349.723 344.554 346.222 315.394 346.222 315.394L343.012 302.855V268.739H344.179L344.763 297.898L347.389 308.687L347.681 313.353L351.474 360.009C351.474 360.009 368.398 364.674 369.273 360.883C370.149 357.093 362.854 354.76 362.854 354.76L367.231 346.304V329.974L365.772 326.475L363.146 302.855L367.523 298.19L369.857 295.274V271.946L366.939 262.907L366.064 255.325L361.395 243.661C361.395 243.661 340.094 236.663 326.38 244.828Z" fill="white"/>
<path id="Vector_6" d="M364.313 178.927C364.313 182.434 363.48 185.891 361.883 189.014C360.285 192.137 357.969 194.837 355.124 196.891C352.279 198.945 348.987 200.295 345.518 200.83C342.049 201.364 338.503 201.069 335.171 199.967C331.839 198.865 328.816 196.989 326.351 194.492C323.886 191.995 322.049 188.949 320.992 185.605C319.934 182.261 319.686 178.713 320.268 175.254C320.849 171.795 322.244 168.524 324.338 165.709L324.344 165.703C327.125 161.963 331.015 159.196 335.461 157.792C339.907 156.389 344.682 156.422 349.108 157.886C353.534 159.351 357.386 162.172 360.115 165.949C362.845 169.727 364.314 174.267 364.313 178.927V178.927Z" fill="#6C63FF"/>
<path id="Vector_7" d="M361.745 168.572L359.936 178.927C346.342 143.661 324.717 165.324 324.344 165.703C326.579 162.699 329.538 160.31 332.947 158.759C336.356 157.207 340.102 156.544 343.836 156.83C347.571 157.117 351.172 158.344 354.303 160.397C357.435 162.45 359.995 165.263 361.745 168.572V168.572Z" fill="white"/>
<path id="Vector_8" d="M358.705 164.201L361.745 174.746C361.745 174.746 355.435 193.647 326.172 194.306L325.213 197.006L322.004 197.88L320.545 204.004L324.63 242.786C324.63 242.786 322.879 246.577 325.797 246.286C325.797 246.286 345.055 239.87 361.687 245.702C361.687 245.702 365.188 247.16 364.313 243.953C364.313 243.953 375.985 236.663 375.109 229.081C374.234 221.5 375.984 186.217 375.984 186.217C375.984 186.217 377.735 176.011 372.483 173.678C372.483 173.678 364.769 162.888 358.705 164.201Z" fill="white"/>
<path id="Vector_9" d="M352.308 237.883C352.308 237.883 334.027 239.717 339.087 249.849C344.148 259.981 353.159 241.302 353.159 241.302L352.308 237.883Z" fill="#E6E6E6"/>
<path id="Vector_10" d="M361.687 192.632C361.687 192.632 358.477 196.422 359.644 202.546C360.811 208.67 365.188 222.375 365.188 222.375L349.724 236.663L354.392 243.078L375.401 232.289L380.07 229.373C378.909 217.579 376.02 206.019 371.496 195.064L370.732 193.215C370.732 193.215 365.188 190.882 361.687 192.632Z" fill="#E6E6E6"/>
<path id="Vector_11" d="M360.228 182.28C363.209 182.28 365.626 179.865 365.626 176.885C365.626 173.906 363.209 171.491 360.228 171.491C357.247 171.491 354.83 173.906 354.83 176.885C354.83 179.865 357.247 182.28 360.228 182.28Z" fill="#E6E6E6"/>
<path id="Vector_12" d="M356.435 140.873C358.61 140.873 360.374 139.111 360.374 136.937C360.374 134.762 358.61 133 356.435 133C354.259 133 352.495 134.762 352.495 136.937C352.495 139.111 354.259 140.873 356.435 140.873Z" fill="#E6E6E6"/>
</g>
<g id="signal">
<path id="signal1" d="M449.36 118H448.234C448.315 130.187 453.212 141.848 461.86 150.442C470.507 159.036 482.202 163.867 494.398 163.88V162.755C482.501 162.742 471.091 158.031 462.655 149.648C454.219 141.264 449.44 129.889 449.36 118V118Z" fill="#6C63FF"/>
<path id="signal2" d="M428.527 118H427.401C427.487 135.707 434.581 152.661 447.134 165.159C459.687 177.656 476.679 184.681 494.398 184.699V183.574C476.978 183.555 460.273 176.648 447.931 164.362C435.59 152.076 428.614 135.408 428.527 118V118Z" fill="#6C63FF"/>
<path id="signal3" d="M407.126 118H406C406.141 166.593 445.74 206.081 494.398 206.081V204.956C446.359 204.956 407.267 165.974 407.126 118Z" fill="#6C63FF"/>
</g>
<g id="space-ship">
<path id="Vector_13" d="M204.304 177.975C204.304 320.866 186.325 320.866 164.152 320.866C152.689 320.866 142.347 320.866 135.034 301.128C132.932 295.455 131.074 288.14 129.517 278.725C126.011 257.559 124 225.753 124 177.975C124 159.603 126.176 141.593 129.517 124.771C131.123 116.672 132.999 108.855 135.034 101.4C137.523 92.2719 140.251 83.6893 143.003 75.8357C144.849 70.5551 146.712 65.5991 148.52 61.0229C156.876 39.9003 164.152 26.8151 164.152 26.8151C164.152 26.8151 204.304 99.0596 204.304 177.975Z" fill="#F2F2F2"/>
<path id="Vector_14" d="M211.354 307.388C206.447 295.318 200.147 293.236 196.029 293.417V291.461H131.663V293.417C127.545 293.236 121.244 295.318 116.338 307.388C108.368 326.992 121.242 360.685 121.242 360.685C121.242 360.685 114.362 313.694 137.207 313.385C139.186 315.964 141.614 318.165 144.374 319.883V332.521H181.267V321.033C184.874 319.205 188.023 316.592 190.484 313.385C213.329 313.694 206.45 360.685 206.45 360.685C206.45 360.685 219.323 326.992 211.354 307.388Z" fill="#6C63FF"/>
<path id="Vector_15" d="M163.951 138.446C176.119 138.446 185.984 128.588 185.984 116.427C185.984 104.267 176.119 94.4083 163.951 94.4083C151.782 94.4083 141.917 104.267 141.917 116.427C141.917 128.588 151.782 138.446 163.951 138.446Z" fill="#3F3D56"/>
<path id="Vector_16" d="M163.951 133.326C173.289 133.326 180.86 125.76 180.86 116.427C180.86 107.095 173.289 99.5291 163.951 99.5291C154.612 99.5291 147.041 107.095 147.041 116.427C147.041 125.76 154.612 133.326 163.951 133.326Z" fill="#6C63FF"/>
</g>
</g>
<defs>
<filter id="filter0_d" x="96" y="340.737" width="142.204" height="80.4857" filterUnits="userSpaceOnUse" color-interpolation-filters="sRGB">
<feFlood flood-opacity="0" result="BackgroundImageFix"/>
<feColorMatrix in="SourceAlpha" type="matrix" values="0 0 0 0 0 0 0 0 0 0 0 0 0 0 0 0 0 0 127 0"/>
<feOffset dx="10" dy="10"/>
<feGaussianBlur stdDeviation="10"/>
<feColorMatrix type="matrix" values="0 0 0 0 0 0 0 0 0 0 0 0 0 0 0 0 0 0 0.25 0"/>
<feBlend mode="normal" in2="BackgroundImageFix" result="effect1_dropShadow"/>
<feBlend mode="normal" in="SourceGraphic" in2="effect1_dropShadow" result="shape"/>
</filter>
<filter id="filter1_d" x="263" y="325" width="143.125" height="80.4857" filterUnits="userSpaceOnUse" color-interpolation-filters="sRGB">
<feFlood flood-opacity="0" result="BackgroundImageFix"/>
<feColorMatrix in="SourceAlpha" type="matrix" values="0 0 0 0 0 0 0 0 0 0 0 0 0 0 0 0 0 0 127 0"/>
<feOffset dx="10" dy="10"/>
<feGaussianBlur stdDeviation="10"/>
<feColorMatrix type="matrix" values="0 0 0 0 0 0 0 0 0 0 0 0 0 0 0 0 0 0 0.25 0"/>
<feBlend mode="normal" in2="BackgroundImageFix" result="effect1_dropShadow"/>
<feBlend mode="normal" in="SourceGraphic" in2="effect1_dropShadow" result="shape"/>
</filter>
<clipPath id="clip0">
<rect width="518" height="404" fill="white"/>
</clipPath>
</defs>
</svg>
